<svg xmlns="http://www.w3.org/2000/svg" xmlns:xlink="http://www.w3.org/1999/xlink" width="810" zoomAndPan="magnify" viewBox="0 0 607.5 607.499986" height="810" preserveAspectRatio="xMidYMid meet" version="1.0"><path fill="#b11b7d" d="M 459.9375 256.558594 C 447.558594 214.609375 419.710938 180.230469 381.203125 159.597656 C 342.695312 138.96875 298.683594 134.15625 257.078125 146.535156 C 215.132812 158.914062 180.75 186.761719 160.121094 225.273438 C 139.492188 263.78125 134.679688 307.789062 147.054688 349.390625 C 159.433594 391.339844 187.285156 425.71875 225.792969 446.351562 C 249.859375 459.414062 276.675781 466.292969 303.496094 466.292969 C 318.96875 466.292969 334.785156 463.886719 350.257812 459.414062 C 392.207031 447.039062 426.585938 419.1875 447.21875 380.679688 C 467.847656 342.515625 472.316406 298.160156 459.9375 256.558594 Z M 236.449219 318.105469 C 238.167969 317.417969 240.234375 318.792969 240.921875 320.511719 L 240.921875 321.199219 C 245.734375 338.046875 256.738281 351.796875 271.863281 360.050781 C 272.554688 360.394531 273.242188 360.738281 273.929688 361.082031 C 275.648438 362.113281 276.335938 364.175781 275.648438 365.894531 C 274.960938 367.269531 273.929688 367.957031 272.554688 367.957031 C 271.863281 367.957031 271.523438 367.957031 270.835938 367.613281 C 270.148438 367.269531 269.113281 366.925781 268.425781 366.242188 C 251.578125 356.957031 239.203125 341.484375 234.042969 323.261719 L 233.699219 322.574219 C 233.699219 320.511719 234.734375 318.445312 236.449219 318.105469 Z M 185.910156 301.941406 C 187.972656 301.941406 189.347656 303.320312 189.347656 305.382812 C 189.691406 318.105469 192.097656 330.828125 196.566406 342.859375 C 205.507812 367.269531 222.011719 386.867188 244.015625 400.277344 C 245.734375 401.308594 246.078125 403.375 245.046875 405.089844 C 244.359375 406.121094 243.328125 406.808594 241.953125 406.808594 C 241.261719 406.808594 240.574219 406.808594 240.234375 406.46875 C 216.851562 392.371094 199.320312 371.394531 189.691406 345.609375 C 184.878906 332.886719 182.125 319.476562 182.125 305.726562 C 182.46875 303.664062 183.84375 301.941406 185.910156 301.941406 Z M 246.078125 432.597656 C 245.390625 433.972656 244.359375 434.660156 242.984375 434.660156 C 242.640625 434.660156 241.953125 434.660156 241.609375 434.316406 C 235.761719 431.566406 230.261719 428.472656 224.761719 425.03125 C 195.191406 406.121094 173.875 377.242188 163.902344 343.890625 C 163.214844 342.171875 164.59375 340.109375 166.308594 339.421875 C 168.027344 338.734375 170.09375 339.761719 170.78125 341.828125 C 180.0625 373.460938 200.695312 400.96875 228.542969 419.1875 C 233.699219 422.625 238.855469 425.378906 244.359375 428.128906 C 246.078125 428.8125 246.765625 430.878906 246.078125 432.597656 Z M 282.179688 393.746094 C 281.835938 395.121094 280.460938 396.152344 278.742188 396.152344 C 278.398438 396.152344 278.054688 396.152344 277.710938 396.152344 C 275.988281 395.808594 274.617188 395.121094 272.894531 394.777344 C 267.394531 393.058594 261.894531 390.652344 256.738281 387.558594 C 234.386719 374.835938 217.882812 354.550781 210.664062 329.792969 C 208.601562 322.230469 207.226562 314.664062 206.882812 307.101562 C 206.882812 305.035156 208.257812 303.664062 210.320312 303.320312 C 212.039062 303.320312 213.757812 304.695312 214.101562 306.757812 C 214.445312 313.976562 215.476562 320.851562 217.539062 327.730469 C 224.074219 350.765625 239.203125 369.675781 260.171875 381.367188 C 264.988281 384.117188 270.148438 386.179688 275.304688 387.898438 C 276.675781 388.246094 278.398438 388.933594 279.773438 389.273438 C 281.492188 389.964844 282.867188 391.679688 282.179688 393.746094 Z M 325.160156 343.546875 C 302.808594 355.578125 274.960938 346.984375 262.925781 324.636719 C 250.890625 302.289062 259.488281 274.4375 281.835938 262.402344 C 304.183594 250.371094 332.035156 258.964844 344.070312 281.3125 C 356.101562 303.664062 347.507812 331.855469 325.160156 343.546875 Z M 370.542969 287.847656 C 370.199219 287.847656 369.855469 287.847656 369.511719 287.847656 C 368.136719 287.847656 366.417969 286.816406 366.074219 285.4375 L 366.074219 284.75 C 361.261719 267.90625 350.257812 254.152344 335.128906 245.898438 C 334.441406 245.554688 333.753906 245.210938 332.722656 244.871094 C 331.003906 243.835938 330.3125 241.773438 331.347656 240.054688 C 332.378906 238.335938 334.441406 237.648438 336.160156 238.679688 C 336.847656 239.023438 337.882812 239.367188 338.566406 240.054688 C 355.414062 249.335938 367.792969 264.808594 372.949219 283.03125 L 373.292969 283.71875 C 373.292969 285.4375 372.261719 287.503906 370.542969 287.847656 Z M 396.675781 302.628906 C 396.675781 302.628906 396.328125 302.628906 396.675781 302.628906 C 394.613281 302.628906 393.234375 301.253906 392.890625 299.195312 C 392.546875 291.972656 391.519531 285.097656 389.453125 278.21875 C 382.921875 255.183594 367.792969 236.273438 346.816406 224.582031 C 342.003906 221.832031 336.847656 219.769531 331.691406 218.050781 C 330.3125 217.707031 328.597656 217.019531 327.21875 216.675781 C 325.5 216.332031 324.125 214.269531 324.8125 212.550781 C 325.160156 210.828125 327.21875 209.457031 328.941406 210.140625 C 330.660156 210.484375 332.035156 211.175781 333.753906 211.515625 C 339.253906 213.238281 344.757812 215.644531 349.914062 218.738281 C 372.605469 231.113281 389.109375 251.402344 396.328125 276.15625 C 398.394531 283.71875 399.769531 291.285156 400.113281 298.847656 C 400.113281 300.914062 398.394531 302.289062 396.675781 302.628906 Z M 421.085938 304.007812 C 419.023438 304.007812 417.644531 302.628906 417.644531 300.566406 C 417.304688 287.847656 414.898438 275.125 410.429688 263.09375 C 401.488281 238.679688 384.984375 219.082031 362.980469 205.671875 C 361.261719 204.640625 360.914062 202.578125 361.945312 200.859375 C 362.980469 199.140625 365.042969 198.792969 366.761719 199.828125 C 390.140625 213.921875 407.675781 234.898438 417.304688 260.6875 C 422.117188 273.40625 424.867188 286.816406 424.867188 300.566406 C 424.523438 302.289062 423.148438 304.007812 421.085938 304.007812 Z M 440.683594 266.1875 C 440.339844 266.1875 439.996094 266.1875 439.652344 266.1875 C 438.277344 266.1875 436.902344 265.152344 436.214844 263.78125 C 426.933594 232.148438 406.300781 204.640625 378.449219 186.417969 C 373.292969 182.976562 368.136719 180.230469 362.632812 177.476562 C 360.914062 176.789062 360.226562 174.730469 360.914062 172.664062 C 361.605469 170.945312 363.667969 170.257812 365.726562 170.945312 C 371.574219 173.695312 377.078125 176.789062 382.578125 180.230469 C 411.804688 199.140625 433.460938 228.019531 443.089844 261.371094 C 443.4375 263.78125 442.402344 265.839844 440.683594 266.1875 Z M 440.683594 266.1875 " fill-opacity="1" fill-rule="nonzero"/><path fill="#b11b7d" d="M 305.5625 296.441406 C 301.777344 295.414062 297.996094 297.472656 296.964844 301.253906 C 295.933594 305.035156 297.996094 308.820312 301.777344 309.851562 C 305.5625 310.882812 309.34375 308.820312 310.375 305.035156 C 311.402344 301.253906 309.34375 297.472656 305.5625 296.441406 Z M 305.5625 296.441406 " fill-opacity="1" fill-rule="nonzero"/></svg>